<svg xmlns="http://www.w3.org/2000/svg" viewBox="0 0 18.12 32"><defs><style>.cls-1{fill:#2f6780;}.cls-2{fill:#d64f4a;}</style></defs><g id="Layer_2" data-name="Layer 2"><g id="Layer_1-2" data-name="Layer 1"><path class="cls-1" d="M6.67,29a.71.71,0,0,0-.23,0l-.2.06A.84.84,0,0,1,6,29.1a1.33,1.33,0,0,0-.3.07l-.1,0h-.1l-.2.05-.23,0a.71.71,0,0,1-.25,0H4.52l-.25.05L4,29.4a.74.74,0,0,1-.21,0l-.24,0-.21,0a.3.3,0,0,1-.21,0,1.87,1.87,0,0,1-.39-.09,1.82,1.82,0,0,1-.36-.16l-.14-.08a1.25,1.25,0,0,1-.26-.3.58.58,0,0,1-.12-.25,1.34,1.34,0,0,0,0-.18.45.45,0,0,1,0-.28.4.4,0,0,1,.07-.17c.06-.06.1-.1.13-.1h.09a.66.66,0,0,1,.2,0,.65.65,0,0,1,.21.06l.24.11A.74.74,0,0,0,3,28l.24,0,.37,0L4,28l.2,0,.15,0a.35.35,0,0,0,.15-.07,1.54,1.54,0,0,1-.27-.34.31.31,0,0,0-.12-.14A.83.83,0,0,1,4,27.18a1.17,1.17,0,0,1-.09-.24.54.54,0,0,0-.08-.17,1.16,1.16,0,0,1-.23-.6c0-.06,0-.13,0-.21a1.36,1.36,0,0,1,0-.15v-.14a1,1,0,0,0,0-.16.28.28,0,0,0,0-.09V25a.81.81,0,0,0,0-.2,1,1,0,0,1,0-.25.39.39,0,0,1,0-.13l.06-.16a.36.36,0,0,1,.1-.15L3.77,24a.11.11,0,0,1,.08,0A.12.12,0,0,0,4,24l.07,0,.09,0h.27a.26.26,0,0,1,.16.07l.15.13.11.05s.08.06.12.15a.35.35,0,0,1,.07.14c0,.08,0,.15.07.22a.49.49,0,0,1,.06.13.46.46,0,0,1,0,.14.68.68,0,0,0,0,.14.26.26,0,0,1,0,.11,1,1,0,0,0,0,.16,1.37,1.37,0,0,1,0,.19c0,.09,0,.18,0,.27a2.72,2.72,0,0,0,0,.28,1,1,0,0,0,0,.17.26.26,0,0,0,0,.14.28.28,0,0,1,0,.15.63.63,0,0,0,0,.21.3.3,0,0,1,0,.1.23.23,0,0,0,0,.1l.08.17a.22.22,0,0,0,.06.12l.23.23a.74.74,0,0,0,.2.2h.22l.25,0a1.39,1.39,0,0,1,.37,0,1.39,1.39,0,0,0,.41,0l.12,0a.32.32,0,0,0,.13,0h.34a.89.89,0,0,1,.33,0H8.7a.12.12,0,0,0,.1,0h.36a.27.27,0,0,1,.13,0H9.4a.23.23,0,0,1,.12,0h.29l.23,0,.26,0,0,0-.22,0-.05.09,0,0-.08,0a.11.11,0,0,0-.08,0,.19.19,0,0,1-.12,0,.11.11,0,0,0-.08,0,.42.42,0,0,0-.16,0l-.13,0-.21,0H9a.1.1,0,0,0-.08,0L9,28h.1l.13,0h.16l.11,0v0l0,0-.07,0H9.32l-.21,0,0,0,0,.06H9.11l.05.06h.09s.06,0,.08,0h.35s0,0,.08,0,.05,0,.09,0a.69.69,0,0,0,.27,0v0h.15l.09,0,0,.06-.15,0c-.08,0-.14,0-.17,0H9.94l-.08,0,0,0v.06l0,0h0s0,0,.05,0h.36v0l0,0,0,.06h0v0l-.11.05,0,0H10v0H9.88a0,0,0,0,0-.07,0H9.72l-.11,0h-.2l0,.06-.08.05a.11.11,0,0,1-.08,0l-.12.05-.09,0a.43.43,0,0,1-.16,0l-.13,0a.65.65,0,0,1-.2,0l-.22,0H7.92l-.19,0a.64.64,0,0,1-.26,0,1.63,1.63,0,0,0-.35,0L6.8,29ZM3.3,21.52l.06-.21.06-.19.11-.25a1.84,1.84,0,0,1,.13-.25,3.4,3.4,0,0,1,.2-.31.78.78,0,0,1,.14-.2L4.14,20a.09.09,0,0,1,.1,0l.12,0a.17.17,0,0,0,.11,0,.15.15,0,0,1,.13,0,.56.56,0,0,1,.21.11l0,.06a1.09,1.09,0,0,1,.06.28.54.54,0,0,1-.06.29,1.13,1.13,0,0,1-.11.22,1.76,1.76,0,0,0-.14.23l-.11.29a.78.78,0,0,0,0,.36q0,.22.18.27a.18.18,0,0,0,.13,0l.14,0L5.21,22l.18,0,.16-.08.16-.05A1,1,0,0,1,6,21.72a.88.88,0,0,1,.27,0,.51.51,0,0,0,.2,0,1,1,0,0,1,.2-.07l.14,0,.15,0H7.3a.93.93,0,0,1,.24,0,.35.35,0,0,1,.1.08l.09.07h.13a.15.15,0,0,1,.11,0l.09.08a.47.47,0,0,1,.18.12.33.33,0,0,1,.07.24.52.52,0,0,1,0,.11l0,.09a.17.17,0,0,0,0,.05s0,0,0,0a.52.52,0,0,1-.09.12.44.44,0,0,1,0,.1l-.05.1a.19.19,0,0,1-.08.1L7.84,23l-.2.09a1,1,0,0,1-.27.07.32.32,0,0,1-.14,0l-.14,0-.21,0a.78.78,0,0,0-.21,0l-.37.09-.3.07-.18,0-.2,0H5.44a1.48,1.48,0,0,1-.31,0H4.79l-.24,0-.19-.07-.13,0a.22.22,0,0,1-.14,0,.8.8,0,0,1-.16-.08l-.15-.08A.91.91,0,0,1,3.62,23a.34.34,0,0,1-.12-.12.74.74,0,0,1-.17-.24,1.51,1.51,0,0,0-.09-.31,1.35,1.35,0,0,1,0-.34c0-.06,0-.14,0-.26A.77.77,0,0,1,3.3,21.52Zm3.53-4.15.13,0a.28.28,0,0,0,.13,0,.29.29,0,0,1,.14,0l.09.06.13.11s0,0,0,.07a.2.2,0,0,0,0,.09l0,.08,0,.08a.41.41,0,0,1,0,.22,1.35,1.35,0,0,1-.12.22l0,0s0,0,0,0l-.07,0-.09,0-.08.08-.08.07-.27.1-.22.06L6.08,19l-.26.11-.14,0-.09,0-.07,0-.1,0a.11.11,0,0,0-.08,0,.24.24,0,0,0-.09.06.46.46,0,0,1-.1.07l-.06,0-.06,0a.25.25,0,0,1-.25,0H4.7l-.07,0a.28.28,0,0,1-.07-.09.19.19,0,0,0,0-.09.31.31,0,0,1-.09-.13.49.49,0,0,1,0-.11s0-.08,0-.12a.15.15,0,0,0,0-.07s0,0,0-.06a1.8,1.8,0,0,1,0-.27l.07-.08.06-.06.13-.13a.4.4,0,0,0,.12-.15l.2-.17a.65.65,0,0,1,.22-.11.38.38,0,0,1,.15-.05l.17,0s0,0,.06-.05l.07,0,.15-.06.15-.05,0,0,.05,0a.42.42,0,0,1,.15,0l.14,0,.15,0,.2,0H6.7l.11,0ZM8.62,30.3a.88.88,0,0,0,0,.17.21.21,0,0,1,0,.14.18.18,0,0,1,0,.06.11.11,0,0,0,0,.07.14.14,0,0,0,0,.1.12.12,0,0,1,0,.08.41.41,0,0,1-.1.14,1.44,1.44,0,0,1-.22.27,1,1,0,0,1-.37.25,4.08,4.08,0,0,0-.42.17l-.21.06a.59.59,0,0,0-.19.05l-.19.08L6.62,32l-.27,0a.38.38,0,0,1-.24-.11L6,31.76a.56.56,0,0,1-.09-.14.28.28,0,0,1,0-.1.3.3,0,0,0,0-.1.57.57,0,0,1,0-.16v-.05A.85.85,0,0,1,6,30.77a.41.41,0,0,0,.07-.11.27.27,0,0,1,.06-.1,2.73,2.73,0,0,1,.21-.3A.81.81,0,0,1,6.62,30a.24.24,0,0,0-.11,0s-.06-.05-.07-.1a.13.13,0,0,1,.07-.12l.08,0,.08,0a.35.35,0,0,1,.18-.05H7a.07.07,0,0,1,.06,0l.08,0a1.82,1.82,0,0,1,.33,0l.32.09.14,0,.13,0,.16,0,.17,0c.07,0,.13.08.19.22A.71.71,0,0,1,8.62,30.3Zm-1,.65h.06a.2.2,0,0,0,.08,0,.07.07,0,0,0,0,0l0,0,.06-.06s0,0,0-.07,0,0,0,0l0-.05-.07,0a.08.08,0,0,1-.08,0l-.1-.09-.13-.08-.11,0A.81.81,0,0,0,7,30.25a.33.33,0,0,0-.07.13.6.6,0,0,0,0,.12.32.32,0,0,1,0,.13.22.22,0,0,0,0,.09.43.43,0,0,1,0,.11.34.34,0,0,1,0,.09.37.37,0,0,0,0,.11v.14s0,.07.09.07l.16-.06.17-.06a.14.14,0,0,1,.08-.05l.1,0a.09.09,0,0,1,.06,0A.2.2,0,0,0,7.59,31ZM8.87,28.3H9s0,0,0,0a.08.08,0,0,1,0-.06H8.84l-.11,0h-.1a.17.17,0,0,1-.1,0v.07h.34Zm-.2.27h0s0,0,0,0l0-.05H8.58l0,0v0l0,0ZM8.6,28h.11a0,0,0,0,0,0,0,.06.06,0,0,1,0,0l-.07,0h0Zm.4.56s0,0,0,0,0,0,0-.05l-.11,0H8.76l.08.09Zm-.22-.61V28l.07,0,0,0Zm.87.54v-.07H9.57l-.19,0-.09,0-.15,0H9.09v0l0,0,.18,0,.13,0,.14,0Zm-.45-.29,0-.07h.06l0,0-.05,0Zm.34-.07a.08.08,0,0,1,0,0H9.41l0,0,0,0Zm-.06.51h.09l.11,0,.06,0,0,.05H9.47Zm.13-.6,0-.05h.09V28Zm0,.09.07,0,0,0s0,0,0,0H9.61ZM9.76,28a.17.17,0,0,0,0-.05l.07,0H10l0,0h0l-.07,0Zm0,.62s0,0,0,0h.06l.05,0Zm.18-.54-.05.05,0,0-.09,0h0l0,0H10Zm-.05.3a.16.16,0,0,1,.11-.05v0l-.08,0Zm.05-.21s0,0,0-.05l0,0v.09ZM10.1,28,10,28v-.07h.09Zm0,.15h-.05a.11.11,0,0,1,0-.06s0,0,0,0Zm.09.18s0,0,0,0v0H10.1v0Zm0-.52.06.05,0,0h0l-.05,0,0,0,0-.08h.07Zm.06.16.07,0h0l0,0h-.09a.15.15,0,0,1-.09,0h0l0,0h0Zm-.13.18v0s0,0,0,0h0v.07h0Zm.11,0,0-.05,0,0h0Zm0,.16.07,0h-.09Zm0,.11h.07v.09s0,0,0,0h0Zm.07-.52a.17.17,0,0,1-.06-.11l0,0,.05.09Zm-.06.25v-.05l0,0,.06,0v0l0,0Zm.13.34,0,0v-.09h.06Zm0-.47s0,0,0,0,0,0,.08,0l0,.05Zm0,.06h0v.09h0Zm0,.16,0,0s0,0,0,0h-.08Zm0,.09h.06s0,0,0,0l.07,0v0l0,0h-.06a.08.08,0,0,1-.07,0Zm.15-.49-.13,0v-.09l.09,0Zm-.06.58s0,0,0,0a.12.12,0,0,1,0,.07h0l0,0Zm0-.22s0,0,0,0,.05,0,.05,0h0l0,0Zm0-.12h.08v.07h-.08Zm.11-.13,0,0,0,0h.07Zm0,.33,0,0v-.06a.14.14,0,0,1,.09,0v.06Zm.18.12h-.2l0-.06s0,0,.06,0l.12,0Zm-.2,0h0v0h0Zm.08-.52h.05V28h-.07v-.07Zm0,.16.07,0v0s0,0,0,0h0Zm.09.36,0,0h-.05v0Zm0-.13v0h0v0l0,0v0Zm.07-.14h.09v0H10.8Zm.07,0,0-.07,0,0,.06,0,0,.08h-.09Zm.09.26v.09h-.09v-.09Zm.11,0,0,0h0V28.3h.07Z"/><path class="cls-2" d="M14.87,24.66v.06h.41a0,0,0,0,0,0,0,.17.17,0,0,1,0-.05h-.16l-.1,0h-.18Z"/><path class="cls-2" d="M15,24.43a0,0,0,0,1,0,0l-.07,0h0v0H15S15,24.44,15,24.43Z"/><path class="cls-2" d="M17.41,16.63a2,2,0,0,1,.7.32c0-.19,0-.39,0-.58a2.07,2.07,0,0,1-1.53-1.84,2.1,2.1,0,0,1,1.53.48,8.76,8.76,0,0,0-.1-1,2.05,2.05,0,0,1-2.61-1.22,2.07,2.07,0,0,1,2.55.89A8.32,8.32,0,0,0,17,11.14c-.42-.74-.87-1.45-1.32-2.16a5.85,5.85,0,0,1-.86-3.27s0-.13.07-.13c.18,0,.21-.19.21-.34,0-.51,0-1,0-1.54,0-.19-.13-.28-.34-.28H12.25c-.21,0-.34.09-.34.28,0,.51,0,1,0,1.54,0,.15,0,.33.21.34,0,0,.07.08.07.13A5.85,5.85,0,0,1,11.3,9c-.45.71-.9,1.42-1.32,2.16a8.54,8.54,0,0,0-1.1,4.32c0,2.06.08,4.12.15,6.18,0,.46.1,1.52.19,2.62h.07a.6.6,0,0,1,.19.06l.21.1a1,1,0,0,0,.23,0l.22,0h.68l.18,0,.14,0,.13-.06a2,2,0,0,1-.24-.31.42.42,0,0,0-.11-.13.54.54,0,0,1-.16-.23,1.89,1.89,0,0,1-.09-.21.68.68,0,0,0-.06-.16,1,1,0,0,1-.21-.53c0-.06,0-.12,0-.2s0-.12,0-.13a.72.72,0,0,1,0-.13c0-.05,0-.1,0-.14s0-.05,0-.08a.17.17,0,0,1,0-.07v-.34a1.54,1.54,0,0,0,0-.19.76.76,0,0,1,0-.21.35.35,0,0,1,0-.13.69.69,0,0,1,.05-.13.24.24,0,0,1,.09-.14l.12-.07a.09.09,0,0,1,.08,0s.05,0,.09,0l.06,0,.08,0h.25a.2.2,0,0,1,.14.06,1.42,1.42,0,0,0,.13.12l.11.05a.21.21,0,0,1,.1.12l.07.13.06.2.05.11a.44.44,0,0,1,0,.13.22.22,0,0,0,0,.12.23.23,0,0,1,0,.11,1,1,0,0,0,0,.15.78.78,0,0,1,0,.16c0,.08,0,.17,0,.25a2,2,0,0,0,0,.25.86.86,0,0,0,0,.15.28.28,0,0,0,0,.13.28.28,0,0,1,0,.13.59.59,0,0,0,0,.19l0,.09a.19.19,0,0,0,0,.09,1,1,0,0,1,.07.15.23.23,0,0,0,.05.11l.22.21a1,1,0,0,0,.17.18H13a1.18,1.18,0,0,1,.33,0,1.07,1.07,0,0,0,.36,0h.12l.11,0,.31,0a1.37,1.37,0,0,1,.29,0h1.21l.13,0H16l.21,0,.23,0,.05,0-.19,0-.05.08,0,0a.08.08,0,0,1-.07,0h-.07a.12.12,0,0,1-.11,0,.09.09,0,0,0-.07,0,.38.38,0,0,0-.15,0l-.11,0a.66.66,0,0,0-.19,0h-.14a.09.09,0,0,0-.07,0l.06,0h.1l.11,0h.15l.09,0v.05h-.16l-.2,0,0,0,0,.05h0l0,.05h.15a.3.3,0,0,0,.16,0h.05s0,0,.11,0,0,0,.07,0a.08.08,0,0,1,.08,0,.5.5,0,0,0,.24,0l0,0h.13l.08,0,0,.05-.13,0a.21.21,0,0,1-.16,0h-.06l-.07,0-.05,0v.05l0,0h.41v0l0,0,0,.05h0v0l-.1,0v0h-.1v0h0l-.06,0H16l-.08,0h-.27l0,.05a.18.18,0,0,1-.07,0,.08.08,0,0,1-.07,0l-.11,0a.18.18,0,0,1-.09,0,.17.17,0,0,1-.14,0h-.3l-.19,0h-.36l-.16,0a1,1,0,0,1-.24,0l-.31,0-.29.05H13.2a.66.66,0,0,0-.21,0l-.18,0a.82.82,0,0,1-.25.06l-.26.06h-.09l-.09,0-.18,0-.21,0H11.5a.91.91,0,0,0-.23,0l-.22,0-.25,0h-.18l-.22,0-.19,0a.35.35,0,0,1-.18,0,2.45,2.45,0,0,1-.36-.08,1.82,1.82,0,0,1-.32-.15h0c.08.82.15,1.53.19,1.85A1.79,1.79,0,0,0,10.66,29a8.61,8.61,0,0,0,2.84.41A8.63,8.63,0,0,0,16.35,29a1.79,1.79,0,0,0,1.14-1.63c.11-.89.45-4.69.49-5.7l.09-2.91A2.06,2.06,0,0,1,17.41,16.63Zm-6.3-.72a.21.21,0,0,1,.06-.08l.06-.05.12-.12a.31.31,0,0,0,.1-.13l.18-.15a1,1,0,0,1,.2-.11l.13,0a.53.53,0,0,0,.16,0,.1.1,0,0,0,.05,0l.06,0,.14,0,.14-.05h0l.05,0,.13,0,.13,0,.13,0,.17,0h.08l.1,0h0l.11,0,.12,0a.28.28,0,0,1,.13,0l.08.05a.59.59,0,0,1,.11.1.08.08,0,0,1,0,.06.25.25,0,0,0,0,.09s0,0,0,.07l0,.07a.67.67,0,0,1,0,.2,1.28,1.28,0,0,1-.12.19l0,0,0,0-.07,0-.08,0-.07.07a.21.21,0,0,1-.08.06l-.24.1-.19.05-.44.14-.23.1-.13,0-.08,0-.06,0h-.09a.13.13,0,0,0-.08,0l-.08.06-.08.06-.05,0-.06,0a.27.27,0,0,1-.23,0l-.06,0h-.07a.16.16,0,0,1-.06-.08.16.16,0,0,0-.05-.08.35.35,0,0,1-.08-.12l0-.09a.42.42,0,0,1,0-.12.07.07,0,0,0,0-.05.14.14,0,0,1,0-.06A1.29,1.29,0,0,1,11.11,15.91Zm3.54,3.42,0,.08a.09.09,0,0,0,0,.05l0,0a.48.48,0,0,1-.08.11.51.51,0,0,1,0,.09l0,.09a.32.32,0,0,1-.08.09l-.1.07-.18.08-.24.07h-.13l-.13,0-.19,0-.19,0-.33.09-.27.06-.16,0-.18,0H12.1a1.27,1.27,0,0,1-.28,0h-.3l-.22,0-.17-.06-.12,0a.29.29,0,0,1-.12,0l-.15-.07-.13-.08L10.46,20a.63.63,0,0,1-.11-.12,1,1,0,0,1-.15-.21,1.43,1.43,0,0,0-.08-.28,1.05,1.05,0,0,1,0-.3,1.39,1.39,0,0,1,0-.24.8.8,0,0,1,.05-.22l.06-.18a.85.85,0,0,1,.06-.17l.09-.23a2.3,2.3,0,0,1,.12-.23l.17-.27a1.06,1.06,0,0,1,.13-.18l.13-.15a.1.1,0,0,1,.09,0h.11l.1,0a.11.11,0,0,1,.11,0,.46.46,0,0,1,.19.1l0,.05a.91.91,0,0,1,0,.26.54.54,0,0,1,0,.26,1.74,1.74,0,0,1-.1.19l-.13.21-.1.26a.8.8,0,0,0,0,.33.24.24,0,0,0,.16.24h.12l.13,0,.27,0,.16,0,.15-.06.14-.05.22-.07a1,1,0,0,1,.24,0,.45.45,0,0,0,.18,0l.17-.06h.13l.14,0h.35a.65.65,0,0,1,.21,0,.27.27,0,0,1,.1.06l.08.07h.11a.12.12,0,0,1,.1,0l.08.06a.45.45,0,0,1,.16.12.25.25,0,0,1,.07.21A.22.22,0,0,1,14.65,19.33Zm.89,5.31h-.07l0-.06h0l0,0Zm.68.16-.07,0,0,0a.16.16,0,0,1,.1-.05Zm.19,0h-.13v0h.13Zm-1.47,1.88a.23.23,0,0,1,0,.13.39.39,0,0,1,0,.06l0,.06a.16.16,0,0,0,0,.09.1.1,0,0,1,0,.07.38.38,0,0,1-.09.13,1.16,1.16,0,0,1-.2.24.71.71,0,0,1-.33.22l-.38.16a.49.49,0,0,1-.19.05l-.17,0-.17.08-.14,0h-.23a.41.41,0,0,1-.22-.1l-.11-.11a.23.23,0,0,1-.08-.12.2.2,0,0,1,0-.09.24.24,0,0,0,0-.09.53.53,0,0,1,0-.14v0A.81.81,0,0,1,12.6,27a.33.33,0,0,0,.06-.1l.06-.09a2.11,2.11,0,0,1,.18-.27.86.86,0,0,1,.25-.22l-.09,0s-.05,0-.06-.09,0-.09.06-.11l.07,0,.07,0a.45.45,0,0,1,.17,0h.11l.06,0h.07a1.41,1.41,0,0,1,.29,0l.29.08h.12l.13,0,.14,0,.15,0a.36.36,0,0,1,.18.2.78.78,0,0,1,0,.26A.61.61,0,0,0,14.94,26.68Zm.78-1.6v0H16l.05,0ZM16,25s0,0,0,0h0l.05,0Zm.52-.11h-.07v-.08h.07Zm-.08-.15v0l.07,0Zm.34-.4h.06v.05h-.06Zm0,.14.06,0v0h-.06Zm0,.15,0,.05h-.05v-.07A.13.13,0,0,1,16.82,24.66Zm-.23-.41.08,0,0,0h-.11Zm0,.19s0,0,.07,0l-.05.05h0S16.6,24.45,16.6,24.44Zm0,.09h0v.08h0Zm0,.14v0a0,0,0,0,0,0,0h-.06Zm-.1-.42,0,.08,0,0a.14.14,0,0,1-.05-.1Zm0,.2h0l0,0h-.08l-.08,0h0l0,0h.09Zm-.29,0h.08l0,0-.06,0Zm-.2,0h.15l0,0h0l-.06,0H16a.17.17,0,0,0,0-.05Zm-.29.2h-.06a0,0,0,0,0,0,0l0,0h.08l0,0Zm.07-.17h.08v.05h0Zm0,.18,0-.05.06,0,0,0a.06.06,0,0,1,0,0Zm.24-.05-.08,0h0l0,0h.15l0,0-.05,0Zm.14.05h-.06a.08.08,0,0,1,0,0l0,0Zm0,0a.07.07,0,0,1,0-.05s0,0,0,0l0,.06Zm.06-.29h.07l.05,0,0,.05h0l0,0,0,0Zm.05.31h0l0,0v0h.05Zm.05,0,0,0,0,0h0Zm.11,0,0,0h0v-.08l.05,0Zm.05.35,0,0v-.08h.05Zm.08,0h-.05l0,0,0-.05s0,0,0,0A.1.1,0,0,1,16.67,24.92Zm0-.15v0s0,0-.06,0h-.05v0h0a0,0,0,0,1,0,0l.06,0Zm0-.1,0,0,0-.05s0,0,0,0,0,0,0,0Zm0-.08h-.06v-.06h.06Zm0-.22h.06v.05l0,0Zm.08.5h0v0h0Zm.08,0H16.8v0h.07Zm.07-.05h-.18v-.05s0,0,.06,0h.11Zm0-.1h-.07v0h0v0l0,0Zm0-.09v0H17v0Zm.14.24H17V24.8h.08Zm0-.31h0l-.05-.06.05,0,.05,0,0,.07Zm.15.26,0,0h0v-.05h.07Z"/><path class="cls-2" d="M15.21,24.87l-.05,0h-.08l.07.08h.14s0,0,0,0a.06.06,0,0,1,0,0Z"/><polygon class="cls-2" points="15.2 24.41 15.1 24.41 15.1 24.48 15.16 24.46 15.2 24.41"/><path class="cls-2" d="M14.89,24.93v0l0,0L15,25h0s0,0,0,0l0,0h-.11Z"/><path class="cls-2" d="M15.68,24.92l.12,0h.08v-.06h-.07l-.17,0-.09,0-.13,0,0,0V25l.16,0Z"/><path class="cls-2" d="M14.26,26.85s0,0,0,0a.06.06,0,0,0-.07,0s0,0-.06,0l-.1-.09-.11-.06-.1,0a.66.66,0,0,0-.26-.1.24.24,0,0,0-.06.11.6.6,0,0,0,0,.12.52.52,0,0,1,0,.11.19.19,0,0,0,0,.08.36.36,0,0,1,0,.1.25.25,0,0,1,0,.08v.23s0,.06.08.06l.14-.06.15-.05a.1.1,0,0,1,.07,0l.09,0,.06,0,.07,0h.06a.13.13,0,0,0,.07,0l0,0,0,0,0-.05s0,0,0-.06A.11.11,0,0,0,14.26,26.85Z"/><path class="cls-1" d="M4.73,7.52a.14.14,0,0,0,0,.09.1.1,0,0,1,0,.08l0,0H4.58l0,0a.07.07,0,0,0-.08,0h0a.06.06,0,0,1-.08,0,.13.13,0,0,1-.1-.1.36.36,0,0,1,0-.1.2.2,0,0,0,0-.11c0-.05,0-.11-.05-.18a1.24,1.24,0,0,1,0-.18V6.85a3.15,3.15,0,0,1,0-.53,2.88,2.88,0,0,1,0-.33l.06-.32a1.23,1.23,0,0,1,0-.18c0-.11.06-.23.1-.36s0-.13,0-.2a.75.75,0,0,1,0-.16.84.84,0,0,1,0-.17,2,2,0,0,1,0-.24l.06-.23a.27.27,0,0,1,0-.1l0-.1a.59.59,0,0,0,0-.17,1.11,1.11,0,0,1,0-.17.49.49,0,0,0,0-.12V3.34a1.11,1.11,0,0,0,0-.19A.29.29,0,0,0,4.67,3a.28.28,0,0,0-.2-.08H4.31L4.14,3A.44.44,0,0,1,4,3L3.83,3l-.1.07a.22.22,0,0,1-.09.07l0,0,0,0-.12.11a.27.27,0,0,1-.19.1l-.11,0-.1-.06S3,3.27,3,3.2a.24.24,0,0,1,0-.08.19.19,0,0,0,0-.07.16.16,0,0,1,0-.07V2.92h0A.78.78,0,0,1,3,2.65a.55.55,0,0,1,.13-.22,1.14,1.14,0,0,1,.23-.15.82.82,0,0,1,.26-.1l.17,0a.8.8,0,0,0,.15,0l.08,0h.38l.18,0,.16,0,.17,0a.87.87,0,0,1,.19.1l.06,0,.08.06.09.08a.64.64,0,0,1,.06.1.91.91,0,0,1,.08.17.9.9,0,0,1,0,.25s0,.06,0,.13,0,.11,0,.15a.77.77,0,0,1,0,.21,2.15,2.15,0,0,0,0,.23,1.5,1.5,0,0,1,0,.2c0,.08,0,.14,0,.2s0,.27,0,.42A2.38,2.38,0,0,1,5.27,5a2.23,2.23,0,0,0-.09.39,1.8,1.8,0,0,1-.08.39A2.45,2.45,0,0,0,5,6.05l-.09.33c0,.1,0,.21-.08.31s0,.2-.07.3a1.4,1.4,0,0,0,0,.23A1.69,1.69,0,0,1,4.73,7.52ZM9.86,5.24l0,0,0,0h0l-.09,0-.08,0s0-.09-.08-.2,0-.12,0-.17a.5.5,0,0,1,0-.13.57.57,0,0,1,0-.13V4.34c0-.12,0-.2,0-.25l-.19.09a.62.62,0,0,0-.2.1l-.12,0-.14,0-.11,0-.1,0a.44.44,0,0,1-.16.06.59.59,0,0,0-.16.07L8,4.66l-.17.07a.35.35,0,0,0-.15.07.4.4,0,0,1-.13.07l-.1,0a.34.34,0,0,0-.12,0h0L7.27,5,7,5.06a.69.69,0,0,1-.25.06.37.37,0,0,1-.25-.07.18.18,0,0,1-.07,0l-.07-.06-.14-.17a.92.92,0,0,1-.13-.19.67.67,0,0,1,0-.18V4.21a.25.25,0,0,1,0-.09A.45.45,0,0,1,6.16,4a.64.64,0,0,1,.29-.12H6.6a.89.89,0,0,0,.31-.06,2.16,2.16,0,0,0,.33-.14l.28-.14.25-.12.13-.09.28-.14a.7.7,0,0,0,.28-.15,1.53,1.53,0,0,1,.29-.18l.15-.09.15-.08.19-.11.16-.09.15-.11.15-.1,0-.16c0-.06,0-.13,0-.21a1.57,1.57,0,0,0,0-.23,1.5,1.5,0,0,1,0-.22,1.76,1.76,0,0,0,0-.23,1.26,1.26,0,0,0,0-.27c0-.09,0-.16,0-.22l0-.17A.67.67,0,0,1,9.79.26a.44.44,0,0,1,.12-.1L10.1.08A.76.76,0,0,1,10.3,0l.16,0a.79.79,0,0,1,.26,0,1,1,0,0,1,.2.11.66.66,0,0,1,.24.26,1.61,1.61,0,0,1,.12.33.66.66,0,0,0,0,.14.3.3,0,0,1,0,.16c0,.14,0,.27,0,.4a2.57,2.57,0,0,0-.06.4,1.12,1.12,0,0,1,0,.19c0,.09,0,.2-.05.31s0,.2-.05.29,0,.17-.06.23a3.38,3.38,0,0,0-.08.34c0,.11,0,.2,0,.27s0,.06,0,.11,0,.1,0,.14a1.4,1.4,0,0,1,0,.23v.22a.91.91,0,0,1,0,.17.51.51,0,0,1,0,.13c0,.09,0,.15,0,.18l0,.15s0,0-.06,0l-.09,0-.05,0,0,0-.05,0a.06.06,0,0,1,0,0s0,0-.05,0l-.07,0-.06,0a.11.11,0,0,1-.07,0l-.07,0,0,0,0,0,0,0-.06,0ZM6.35,2.35a.25.25,0,0,1,.05-.22.7.7,0,0,1,.18-.21l.19-.15.17-.11.16-.1.15-.09.19-.1.22-.09.28-.09.32-.09.2,0,.2,0A1.4,1.4,0,0,1,9,1l.26,0s.06,0,.07,0a0,0,0,0,1,0,.06v.05s0,0,0,0a.08.08,0,0,1,0,0l0,.06s0,.05,0,.06l0,.05a.22.22,0,0,0,0,.1v.07a.08.08,0,0,1,0,0s0,0,0,0,0,0,0,0,0,0,0,0,0,0,0,0v0s0,0,0,0a.08.08,0,0,1,0,0A.17.17,0,0,1,9,2L8.8,2,8.68,2h-.1l-.17,0-.13.05-.12,0L8,2.23a.92.92,0,0,0-.17.08l-.25.12-.26.13-.12.07a.18.18,0,0,1-.07.05.39.39,0,0,1-.14,0H6.8l-.1,0a.34.34,0,0,1-.16-.08l-.13-.09A.2.2,0,0,1,6.35,2.35Zm1.29,6a.2.2,0,0,1,0-.1.78.78,0,0,1,0-.14V7.84a1.15,1.15,0,0,1,0-.16,1.92,1.92,0,0,1,0-.22,1.55,1.55,0,0,1,.12-.28A.58.58,0,0,1,7.83,7,1.2,1.2,0,0,1,8,6.77l.18-.27c0-.07.09-.13.13-.19a1.27,1.27,0,0,0,.13-.19A.71.71,0,0,0,8.53,6l.08-.14.09-.17a.24.24,0,0,1,.1-.13.21.21,0,0,1,.15,0s0,0,0,0,0,0,0,0,0,0,0,0,0,0,0,0l0,.06,0,.05,0,0,0,0,0,.08a.11.11,0,0,1,0,.08V6a.09.09,0,0,1,0,.06l-.06.09.06,0,.08,0,.21.09a.68.68,0,0,1,.21.11l.07,0,.12.07a.42.42,0,0,1,.14.09.31.31,0,0,1,.15.26.31.31,0,0,1,0,.1l0,.09a.57.57,0,0,1-.11.26,1.23,1.23,0,0,1-.2.19.59.59,0,0,1-.11.08.5.5,0,0,0-.13.09l-.15.1-.2.1L9,8.06a2.2,2.2,0,0,0-.28.18l-.15.08a.56.56,0,0,0-.15.1.61.61,0,0,1-.49.08A.34.34,0,0,1,7.64,8.33Zm.52-.67s0,0,0,0,0,0,.06,0a.34.34,0,0,0,.16,0l.14-.09.14-.07.12-.08L9,7.32l.18-.16.08-.07a.1.1,0,0,0,0-.08.51.51,0,0,0,0-.09l-.06-.09a.36.36,0,0,1-.07-.1A.48.48,0,0,0,9,6.63l-.11-.11,0,0a.47.47,0,0,0-.15.13l-.13.17A.83.83,0,0,0,8.53,7l-.12.19a2.67,2.67,0,0,0-.15.27A1.27,1.27,0,0,0,8.16,7.66Z"/><path class="cls-1" d="M1.79,14.35a.77.77,0,0,1-.13.12.31.31,0,0,1-.15.1.33.33,0,0,1-.12.14.63.63,0,0,0-.13.11A1.17,1.17,0,0,0,1.1,15L1,15.08l-.24.15-.09.09h0a.4.4,0,0,1-.22.05l0,0,0,0h0l0,0a.13.13,0,0,1-.07-.09s0,0,0,0l0-.05,0-.07a.45.45,0,0,0,0-.08l0,0a.09.09,0,0,1,0-.06.42.42,0,0,1,0-.19.8.8,0,0,1,.08-.16l0,0h0a.19.19,0,0,1,0-.09s0,0,.06-.08l0-.06s0-.05,0-.06L.46,14,.53,14s0,0,0-.06l.07-.06.06-.07,0,0,.1-.13.07-.08.1-.09.13-.14.1-.12a.63.63,0,0,0,.1-.12l.08-.12.07-.08,0,0,0,0,0,0h0a.16.16,0,0,0,0-.06l0-.07a.41.41,0,0,1,.07-.12l.09-.12,0,0,0,0a.41.41,0,0,1,.07-.11L2,12.05a.56.56,0,0,0,.09-.14.84.84,0,0,0,.09-.19,3.12,3.12,0,0,1,.14-.36l.06-.12a.75.75,0,0,1,.07-.12l0-.06a.25.25,0,0,0,0-.07c0-.05.05-.1.08-.14l.07-.15,0-.06a.05.05,0,0,1,0-.05.54.54,0,0,1,.07-.13.49.49,0,0,0,.07-.11A1.17,1.17,0,0,0,3,10.24L3,10.13A1,1,0,0,1,3.1,10l.09-.11.14-.17s0,0,0,0,0,0,0,0a1,1,0,0,1,.17-.19.71.71,0,0,1,.29-.13h.11a.21.21,0,0,1,.12.05l.08.07.07.08a.73.73,0,0,1,0,.12.39.39,0,0,1,0,.13.25.25,0,0,1-.07.17.88.88,0,0,1-.09.21c0,.09-.1.15-.13.21l-.15.13-.12.15a.4.4,0,0,0-.08.16c0,.06,0,.1,0,.15s0,.09,0,.14a.5.5,0,0,0,0,.12.53.53,0,0,1,0,.12c0,.05,0,.09,0,.12a.52.52,0,0,0,0,.11.5.5,0,0,1,0,.12v.08s0,.07,0,.11l0,.1c0,.08,0,.15-.07.22l-.08.21,0,.07s0,0,0,.06l0,.09-.05.06,0,0,0,0a.08.08,0,0,0,0,0l0,0,0,0,0,0a.35.35,0,0,1-.09.1.29.29,0,0,0-.06.1.44.44,0,0,1-.06.1l0,.06,0,0-.09.11-.1.1,0,0,0,.05-.09.09-.09.1L2.18,14l-.11.12L2,14.18l-.11.1,0,0Zm-1.38.73,0,0,0,0,.08,0h0l0-.07L.43,15Zm.09.05,0,.08,0,0,.05,0,.08-.09L.55,15.1Zm.1-.25v0h0l0,0h0v0H.64Zm.11-.05.05,0,0-.08L1,14.67v-.05l0,0-.11.1h0v.05l0,0Zm.1.1H.74V15l0,.09,0,0L.81,15v-.09Zm0-.09h0l0,0,0-.05h0ZM1,14.49l0,.07.05.06.05,0,0-.05,0,0,.06,0,0,0H1.12Zm0,.26,0,0h0l0,0,.05,0,0,0h0Zm.15-.4h0l.05,0,.13-.13,0,0-.06.09-.08,0-.05.06Zm0,.32.06-.06,0,0-.07.09Zm.12-.14h0l0,0v0l-.06,0Zm.07-.08h0l.06,0,.05,0,0-.06.06,0,0-.05.08-.05,0-.06v-.07h0l-.1.09,0,0,0,0,0,0-.06,0-.05,0-.05,0,0,.06v0l.09,0,0,0h0l-.11.07Zm.07-.39,0,0,.05,0,.09-.06L1.67,14v0L1.6,14ZM1.75,14h0l.07-.05-.05,0L1.73,14Zm.08-.1,0,0,0-.05,0,0Zm0,.15,0,0L2,14l-.06,0Zm.1-.32,0,0H2L2,13.64v0Zm.05.15,0,.05,0,0,.11-.07,0-.09,0,0Zm.11-.33,0,0,0,0,0-.09Zm.06-.11,0,0,0-.1h0Zm.09.21,0,0h0l0,.08h0Zm0-.33,0,0h0l0,0v-.09l0-.05V13l-.07.07-.06.07v0l0,.05,0,0Zm.09.22.07-.09H2.36l0,.05-.06,0,0,0Zm0-.13v0l0,0-.07,0Zm.19-.28-.07.19.06,0,.07-.13.09-.09,0,0Zm0-.09h.06L2.64,13l0-.09-.05,0,0,.08v0h0Zm1.6,2s0,.05,0,.07a0,0,0,0,1,0,.05.16.16,0,0,1,0,.11l-.08,0h-.1l-.06,0-.06,0-.06,0-.06,0-.18-.09s0,0-.06,0l-.06,0-.12-.13a.53.53,0,0,1-.06-.1.31.31,0,0,1,0-.1l0-.16v0a0,0,0,0,1,0,0v-.06a.28.28,0,0,1,0-.09.28.28,0,0,0,0-.09.13.13,0,0,1,0-.06s0-.05,0-.07S3,14,3,14v-.1s0-.08,0-.12,0-.1,0-.16a.18.18,0,0,1,0-.13s.07,0,.14-.05a.51.51,0,0,1,.18,0l.06,0,0,0s0,0,0,0,0,0,0,.06l0,.06a.14.14,0,0,1,0,.06l0,.07c0,.09,0,.16,0,.22a1.77,1.77,0,0,0,0,.2l0,.09,0,.09a.91.91,0,0,0,.1.24l0,0,0,0a.19.19,0,0,0,.05.1l0,0,0,0a.35.35,0,0,0,.09.1s0,0,0,0a.08.08,0,0,1,0,0Zm3.26.51,0,.1-.07.09h0a.36.36,0,0,0-.09.08l-.07.08L7,16l-.14.1-.14.07-.17,0-.21.07-.22.06-.26.05H5.77l-.18,0a.3.3,0,0,1-.17,0s-.09,0-.11-.06a.51.51,0,0,1,0-.17c0-.07,0-.13,0-.18a.51.51,0,0,1,0-.13.35.35,0,0,1,0-.11l0-.11a1.8,1.8,0,0,1,.07-.27c0-.09.07-.17.1-.22l.05-.07s0-.07,0-.11a.49.49,0,0,0,0-.11l0-.09,0-.09a.56.56,0,0,1,0-.12.5.5,0,0,1,0-.13l0-.21a1.16,1.16,0,0,0,0-.18A.27.27,0,0,1,6,14l0-.09a.08.08,0,0,1,.1-.06.71.71,0,0,1,.16.07l.06.07.05.07a.24.24,0,0,1,.14.12l.06.05s0,0,.05,0v.14c0,.06,0,.11,0,.13a.09.09,0,0,1,0,0l0,0,.09,0,.1,0h.11l.16,0,.16.05.06,0a.28.28,0,0,1,0,.08,1,1,0,0,1,0,.1,1.17,1.17,0,0,1,0,.11v0a.07.07,0,0,1,0,.05Zm-.21-3.84a0,0,0,0,1,0,0l0,0,.06,0a.17.17,0,0,1,.06-.06l.13-.09.09-.06.13-.07,0,0,0,0,.12-.05L8,11.2l.17,0,.16-.05L8.53,11,8.79,11l.1,0,.09,0a.36.36,0,0,1,.14,0l.1,0,.09.06.07.07.07.07,0,0,0,0s.06.07.05.14a.24.24,0,0,1,0,.12l0,.05,0,0,0,0a.44.44,0,0,1-.11.09l-.12.07-.1,0-.12,0-.2.08L8.53,12l-.16.05a.39.39,0,0,1-.18,0H8l-.15,0a.26.26,0,0,1-.15,0H7.39A.19.19,0,0,1,7.27,12a.36.36,0,0,1-.13-.23L7.08,12a.58.58,0,0,0-.06.17.27.27,0,0,0,0,.12.22.22,0,0,1,0,.08.35.35,0,0,0-.07.12l0,.12a.59.59,0,0,1,0,.08l0,.11a.44.44,0,0,1-.06.1L6.64,13l0,.12a.41.41,0,0,1,0,.09c0,.08,0,.13-.07.15l-.11.07H6.05a.2.2,0,0,0-.11,0,.12.12,0,0,1-.08,0H5.75l0-.05,0,0,0-.08,0-.1a.38.38,0,0,1,0-.11.51.51,0,0,1,0-.18l0-.23s0-.11,0-.2a1.44,1.44,0,0,1,0-.24.24.24,0,0,0,0-.08l0-.07s0,0,0-.07l0-.08,0-.16a.5.5,0,0,0,0-.12.52.52,0,0,1,0-.11s0-.07,0-.1l0-.12a.71.71,0,0,0,0-.12.46.46,0,0,1,0-.14.49.49,0,0,1,0-.12l0-.18a1.37,1.37,0,0,1,0-.16,1.55,1.55,0,0,0,0-.21,1.46,1.46,0,0,0,0-.21V10a1.76,1.76,0,0,0,0-.19.94.94,0,0,0,0-.14.28.28,0,0,0,0-.12.28.28,0,0,1,0-.16A.16.16,0,0,1,6,9.28h.19a.33.33,0,0,1,.15,0l.11,0,.1,0,.2.05.1.07A.45.45,0,0,1,7,9.55l0,0,.07.11a.75.75,0,0,1,.07.12l0,.07a.31.31,0,0,0,.06.13.69.69,0,0,1,0,.13.59.59,0,0,0,0,.11.65.65,0,0,1,0,.2,2,2,0,0,1,0,.25c0,.08,0,.14,0,.18a1.43,1.43,0,0,0,0,.26.77.77,0,0,1,0,.25.77.77,0,0,1,0,.15A.78.78,0,0,0,7.18,11.71Zm-.74,3.82a.16.16,0,0,1,0-.07l0-.08,0-.06,0,0s0,0-.08,0a.41.41,0,0,0,0,.09s0,.09,0,.12a.19.19,0,0,0,0,.08l0,.09a.31.31,0,0,0,0,.09v.06s0,0,.06,0h.06a.22.22,0,0,0,.11,0l.08,0,.07,0,.08,0s0,0,0-.1Z"/></g></g></svg>