<?xml version="1.0" encoding="utf-8"?>
<!-- Generator: Adobe Illustrator 26.2.1, SVG Export Plug-In . SVG Version: 6.00 Build 0)  -->
<svg version="1.1" id="Layer_1" xmlns="http://www.w3.org/2000/svg" xmlns:xlink="http://www.w3.org/1999/xlink" x="0px" y="0px"
	 viewBox="0 0 512 512" style="enable-background:new 0 0 512 512;" xml:space="preserve">
<style type="text/css">
	.st0{fill:url(#SVGID_1_);}
</style>
<linearGradient id="SVGID_1_" gradientUnits="userSpaceOnUse" x1="256" y1="513.2756" x2="256" y2="1.2756" gradientTransform="matrix(1 0 0 -1 0 513.2756)">
	<stop  offset="0" style="stop-color:#EDD5E8"/>
	<stop  offset="1" style="stop-color:#7A5591"/>
</linearGradient>
<path class="st0" d="M256,0C114.8,0,0,114.8,0,256s114.8,256,256,256s256-114.8,256-256S397.2,0,256,0z M386.5,367.9
	c-8.8,0-16-7.2-16-16c-0.1-61.9-50.2-112.1-112.2-112.2h-94.1l36.3,36.3c6.2,6.2,6.2,16.4,0,22.6c-6.2,6.2-16.4,6.2-22.6,0
	L114.2,235c-6.2-6.2-6.2-16.4,0-22.6l63.6-63.6c6.2-6.2,16.4-6.2,22.6,0s6.2,16.4,0,22.6l-36.3,36.3h94.1
	c79.5,0,144.2,64.7,144.2,144.2C402.5,360.7,395.3,367.9,386.5,367.9L386.5,367.9z"/>
</svg>
