<?xml version="1.0" encoding="utf-8"?>
<!-- Generator: Adobe Illustrator 25.4.1, SVG Export Plug-In . SVG Version: 6.00 Build 0)  -->
<svg version="1.1" id="레이어_1" xmlns="http://www.w3.org/2000/svg" xmlns:xlink="http://www.w3.org/1999/xlink" x="0px"
	 y="0px" viewBox="0 0 500.8 284.9" style="enable-background:new 0 0 500.8 284.9;" xml:space="preserve">
<style type="text/css">
	.st0{fill:#01C4C0;}
</style>
<g>
	<path class="st0" d="M318.3,66.8c0.1-7.6,3.6-13.9,2.8-25.5c-0.7-8.9-6.6-12.2-9.3-13.3c-2.7-5.1-6.7-8.5-11.8-8.5
		c-9.6,0-72.3,0-72.3,0l0,0c-7.1-0.4-17.4-4.1-17.4-4.1c4.6-1.9,5.6-1.6,6.4-3.7c0.9-2.2,0.6-2.7,0.6-2.7s-6.6,0.3-8.3,0
		s-1.8-0.6-1.8-0.6s0.3-5.3,0.2-7.6c0-0.6-0.7-0.7-0.9-0.8c-0.9-0.2-1.4,1.1-1.4,1.1s-2.1,4.7-3.2,5.8c-1.2,1.1-3,1.6-3,1.6
		s-6.1,1.5-7.9,3c-2.8,2.3-8.4,10.3-9.8,11.5c-1.2,1-2.6,2.3-3.6,2.9s-3.1,0.9-2.4,6.2c0.4,3.7,1.3,4.1,4.4,4.8c0,0,12.4,3.7,16.1,5
		c1.3,0.5,2.8,1,4.2,1.5c9.8,12.1,4.7,14.9,17.6,31.9l3.2,19.3l-0.5,3.1c0,0-0.1,0.7,1.2,0.7c1.6,0,4.1,0,4.5-3.3l1.6-19.9
		c0,0,26.6,6,72.7,0l2,19.9l-0.4,2.7c0,0-0.1,0.7,1.2,0.7c1.6,0,4.1,0,4.5-3.3c0-0.1,0-0.2,0-0.3l2.5-21.1c0,0,6.2-13.3,5.7-29.4
		c-0.1-2.9-0.5-5.8-1.1-8.5c1.4,1.7,2.6,3.5,2.9,4.6c0.7,2.5,1.2,4.1-0.5,16.7c-0.7,5.7-0.6,8.5-0.2,9.9c-0.6,0.8-1.8,2.9-0.2,4.7
		c2.1,2.3,3.7,2.6,3.9,4.8C322.5,75.5,323.6,67,318.3,66.8z"/>
	<g>
		<g>
			<path class="st0" d="M112.5,279.8c0.5,0.4,1.1,0.8,1.9,1.1c0.8,0.3,1.6,0.5,2.7,0.5c1.4,0,2.4-0.2,2.9-0.7c0.6-0.4,0.8-1,0.8-1.7
				c0-0.4-0.2-0.8-0.5-1.2c-0.3-0.4-0.9-0.6-1.7-0.8l-2.8-0.5c-2-0.3-3.4-0.9-4.3-1.9c-0.9-0.9-1.4-2.1-1.4-3.4
				c0-1.5,0.6-2.7,1.7-3.8c1.1-1.1,2.9-1.6,5.3-1.6c1.3,0,2.5,0.2,3.4,0.5s1.8,0.7,2.7,1.3c0.4,0.3,0.6,0.6,0.7,1.1
				c0,0.4-0.1,0.8-0.4,1.3c-0.4,0.4-0.7,0.7-1.2,0.8c-0.4,0.1-0.8,0-1.3-0.3s-1.1-0.5-1.7-0.8c-0.7-0.3-1.4-0.4-2.2-0.4
				c-1.1,0-1.9,0.2-2.3,0.6s-0.6,0.8-0.6,1.3s0.2,1,0.6,1.3c0.4,0.4,0.9,0.6,1.6,0.7c0.2,0,0.4,0.1,0.7,0.1c0.2,0,0.5,0.1,0.8,0.1
				c0.2,0,0.5,0.1,0.7,0.1s0.5,0.1,0.7,0.1c0.7,0.1,1.4,0.3,2.1,0.6c0.7,0.3,1.3,0.6,1.8,1s0.9,0.9,1.3,1.5c0.3,0.6,0.5,1.3,0.5,2.2
				c0,1.9-0.7,3.4-2.2,4.4s-3.3,1.5-5.5,1.5c-1.3,0-2.5-0.2-3.5-0.5c-1.1-0.3-2.2-1-3.4-1.9c-0.4-0.3-0.6-0.6-0.6-1.1
				c0-0.4,0.2-0.9,0.6-1.3s0.8-0.6,1.2-0.7C111.8,279.4,112.2,279.5,112.5,279.8z"/>
			<path class="st0" d="M128.8,278.1c-0.1-0.3-0.1-0.7-0.1-1.2s0-1,0-1.6c0-0.5,0-1.1,0-1.6s0-0.9,0.1-1.3l0,0
				c0.1-1.9,0.9-3.4,2.2-4.7c1.4-1.2,3.3-1.9,5.8-1.9c2.4,0,4.4,0.6,5.8,1.8c1.4,1.2,2.2,2.8,2.3,4.6c0,0.3,0,0.8,0,1.3s0,1,0,1.6
				c0,0.5,0,1,0,1.5s0,0.9,0,1.3c-0.1,2-0.9,3.6-2.3,4.8c-1.4,1.3-3.3,1.9-5.8,1.9c-2.6,0-4.5-0.6-5.9-1.8
				C129.7,281.8,129,280.2,128.8,278.1z M132.8,272.8c-0.1,0.3-0.1,0.7-0.1,1.1s0,0.9,0,1.4s0,1,0,1.4c0,0.5,0,0.8,0.1,1.1
				c0.1,1,0.5,1.9,1.2,2.6s1.7,1.1,3,1.1c1.2,0,2.2-0.3,3-1c0.7-0.7,1.1-1.5,1.2-2.5c0-0.7,0-1.6,0.1-2.6c0-1,0-1.9-0.1-2.6
				c-0.1-0.9-0.5-1.7-1.2-2.3c-0.7-0.6-1.7-1-2.9-1c-1.3,0-2.3,0.3-3,1C133.2,271.1,132.8,271.8,132.8,272.8z"/>
			<path class="st0" d="M150.1,278.1c-0.1-0.3-0.1-0.7-0.1-1.2s0-1,0-1.6c0-0.5,0-1.1,0-1.6s0-0.9,0.1-1.3l0,0
				c0.1-1.9,0.9-3.4,2.2-4.7c1.4-1.2,3.3-1.9,5.8-1.9c2.4,0,4.4,0.6,5.8,1.8c1.4,1.2,2.2,2.8,2.3,4.6c0,0.3,0,0.8,0,1.3s0,1,0,1.6
				c0,0.5,0,1,0,1.5s0,0.9,0,1.3c-0.1,2-0.9,3.6-2.3,4.8c-1.4,1.3-3.3,1.9-5.8,1.9c-2.6,0-4.5-0.6-5.9-1.8
				C151,281.8,150.2,280.2,150.1,278.1z M154,272.8c-0.1,0.3-0.1,0.7-0.1,1.1s0,0.9,0,1.4s0,1,0,1.4c0,0.5,0,0.8,0.1,1.1
				c0.1,1,0.5,1.9,1.2,2.6s1.7,1.1,3,1.1c1.2,0,2.2-0.3,3-1c0.7-0.7,1.1-1.5,1.2-2.5c0-0.7,0-1.6,0.1-2.6c0-1,0-1.9-0.1-2.6
				c-0.1-0.9-0.5-1.7-1.2-2.3c-0.7-0.6-1.7-1-2.9-1c-1.3,0-2.3,0.3-3,1C154.5,271.1,154.1,271.8,154,272.8z"/>
			<path class="st0" d="M182.6,282.6v-10c0-0.8-0.2-1.6-0.7-2.2c-0.5-0.7-1.5-1-2.9-1c-1.1,0-2,0.3-2.6,1s-1,1.4-1,2.2v10
				c0,0.5-0.2,0.9-0.5,1.2c-0.3,0.3-0.8,0.4-1.5,0.4s-1.1-0.2-1.5-0.4c-0.3-0.3-0.5-0.7-0.5-1.2v-14.7c0-0.5,0.2-0.9,0.5-1.2
				c0.3-0.3,0.8-0.5,1.5-0.5c0.5,0,0.9,0.1,1.2,0.3c0.3,0.2,0.5,0.4,0.7,0.8c0.8-0.5,1.6-0.9,2.4-1c0.8-0.1,1.4-0.2,2-0.2
				c2.4,0,4.1,0.6,5.3,1.7s1.7,2.7,1.7,4.7v10.1c0,0.5-0.2,0.9-0.5,1.2c-0.3,0.3-0.8,0.4-1.5,0.4c-0.6,0-1.1-0.2-1.5-0.4
				C182.7,283.5,182.6,283.1,182.6,282.6z"/>
			<path class="st0" d="M193.6,279.8c0.5,0.4,1.1,0.8,1.9,1.1c0.8,0.3,1.6,0.5,2.7,0.5c1.4,0,2.4-0.2,2.9-0.7c0.6-0.4,0.8-1,0.8-1.7
				c0-0.4-0.2-0.8-0.5-1.2c-0.3-0.4-0.9-0.6-1.7-0.8l-2.8-0.5c-2-0.3-3.4-0.9-4.3-1.9c-0.9-0.9-1.4-2.1-1.4-3.4
				c0-1.5,0.6-2.7,1.7-3.8c1.1-1.1,2.9-1.6,5.3-1.6c1.3,0,2.5,0.2,3.4,0.5s1.8,0.7,2.7,1.3c0.4,0.3,0.6,0.6,0.7,1.1
				c0,0.4-0.1,0.8-0.4,1.3c-0.4,0.4-0.7,0.7-1.2,0.8c-0.4,0.1-0.8,0-1.3-0.3s-1.1-0.5-1.7-0.8c-0.7-0.3-1.4-0.4-2.2-0.4
				c-1.1,0-1.9,0.2-2.3,0.6c-0.4,0.4-0.6,0.8-0.6,1.3s0.2,1,0.6,1.3c0.4,0.4,0.9,0.6,1.6,0.7c0.2,0,0.4,0.1,0.7,0.1
				c0.2,0,0.5,0.1,0.8,0.1c0.2,0,0.5,0.1,0.7,0.1s0.5,0.1,0.7,0.1c0.7,0.1,1.4,0.3,2.1,0.6c0.7,0.3,1.3,0.6,1.8,1s0.9,0.9,1.3,1.5
				c0.3,0.6,0.5,1.3,0.5,2.2c0,1.9-0.7,3.4-2.2,4.4s-3.3,1.5-5.5,1.5c-1.3,0-2.5-0.2-3.5-0.5c-1.1-0.3-2.2-1-3.4-1.9
				c-0.4-0.3-0.6-0.6-0.6-1.1c0-0.4,0.2-0.9,0.6-1.3c0.4-0.4,0.8-0.6,1.2-0.7C192.8,279.4,193.2,279.5,193.6,279.8z"/>
			<path class="st0" d="M209.9,278.1c-0.1-0.3-0.1-0.7-0.1-1.2s0-1,0-1.6c0-0.5,0-1.1,0-1.6s0-0.9,0.1-1.3l0,0
				c0.1-1.9,0.9-3.4,2.2-4.7c1.4-1.2,3.3-1.9,5.8-1.9c2.4,0,4.4,0.6,5.8,1.8c1.4,1.2,2.2,2.8,2.3,4.6c0,0.3,0,0.8,0,1.3s0,1,0,1.6
				c0,0.5,0,1,0,1.5s0,0.9,0,1.3c-0.1,2-0.9,3.6-2.3,4.8c-1.4,1.3-3.3,1.9-5.8,1.9c-2.6,0-4.5-0.6-5.9-1.8
				C210.8,281.8,210,280.2,209.9,278.1z M213.8,272.8c-0.1,0.3-0.1,0.7-0.1,1.1s0,0.9,0,1.4s0,1,0,1.4c0,0.5,0,0.8,0.1,1.1
				c0.1,1,0.5,1.9,1.2,2.6s1.7,1.1,3,1.1c1.2,0,2.2-0.3,3-1c0.7-0.7,1.1-1.5,1.2-2.5c0-0.7,0-1.6,0.1-2.6c0-1,0-1.9-0.1-2.6
				c-0.1-0.9-0.5-1.7-1.2-2.3c-0.7-0.6-1.7-1-2.9-1c-1.3,0-2.3,0.3-3,1C214.3,271.1,213.9,271.8,213.8,272.8z"/>
			<path class="st0" d="M231.2,278.1c-0.1-0.3-0.1-0.7-0.1-1.2s0-1,0-1.6c0-0.5,0-1.1,0-1.6s0-0.9,0.1-1.3l0,0
				c0.1-1.9,0.9-3.4,2.2-4.7c1.4-1.2,3.3-1.9,5.8-1.9c2.4,0,4.4,0.6,5.8,1.8c1.4,1.2,2.2,2.8,2.3,4.6c0,0.3,0,0.8,0,1.3s0,1,0,1.6
				c0,0.5,0,1,0,1.5s0,0.9,0,1.3c-0.1,2-0.9,3.6-2.3,4.8c-1.4,1.3-3.3,1.9-5.8,1.9c-2.6,0-4.5-0.6-5.9-1.8
				C232,281.8,231.3,280.2,231.2,278.1z M235.1,272.8c0,0.3-0.1,0.7-0.1,1.1s0,0.9,0,1.4s0,1,0,1.4c0,0.5,0,0.8,0.1,1.1
				c0.1,1,0.5,1.9,1.2,2.6s1.7,1.1,3,1.1c1.2,0,2.2-0.3,2.9-1s1.1-1.5,1.2-2.5c0-0.7,0-1.6,0.1-2.6c0-1,0-1.9-0.1-2.6
				c-0.1-0.9-0.5-1.7-1.2-2.3c-0.7-0.6-1.7-1-2.9-1c-1.3,0-2.3,0.3-3,1C235.6,271.1,235.2,271.8,235.1,272.8z"/>
			<path class="st0" d="M274.4,282.6v-10c0-0.4,0-0.8-0.1-1.2c-0.1-0.4-0.3-0.7-0.5-1c-0.3-0.3-0.6-0.5-1.1-0.7s-1-0.3-1.8-0.3
				c-1.1,0-2,0.3-2.6,1s-0.9,1.4-0.9,2.2v10.1c0,0.5-0.2,0.9-0.5,1.2c-0.3,0.3-0.8,0.4-1.5,0.4c-0.6,0-1.1-0.2-1.5-0.4
				c-0.3-0.3-0.5-0.7-0.5-1.2V262c0-0.5,0.2-0.9,0.5-1.2c0.3-0.3,0.8-0.5,1.5-0.5c0.6,0,1.1,0.2,1.5,0.5c0.3,0.3,0.5,0.7,0.5,1.2
				v5.3c0.7-0.5,1.4-0.8,2.2-1c0.7-0.2,1.4-0.2,1.9-0.2c2.4,0,4.1,0.6,5.2,1.7s1.7,2.7,1.7,4.7v10.1l0,0c0,0.5-0.2,0.9-0.5,1.2
				c-0.3,0.3-0.8,0.4-1.5,0.4c-0.6,0-1.1-0.2-1.5-0.4C274.6,283.5,274.4,283.1,274.4,282.6z"/>
			<path class="st0" d="M298.7,272.6v10.3c0,0.5-0.2,0.9-0.5,1.2c-0.3,0.3-0.8,0.5-1.5,0.5c-0.5,0-0.9-0.1-1.2-0.2
				c-0.3-0.2-0.5-0.4-0.7-0.7c-0.7,0.3-1.4,0.6-2.2,0.8c-0.8,0.2-1.6,0.3-2.4,0.3c-0.9,0-1.8-0.1-2.6-0.3c-0.8-0.2-1.5-0.6-2.1-1
				c-0.6-0.5-1.1-1-1.5-1.8c-0.3-0.7-0.5-1.5-0.5-2.5c0-0.6,0.1-1.3,0.3-2c0.2-0.7,0.5-1.3,1-1.8s1.2-1,2-1.3
				c0.8-0.4,1.9-0.5,3.2-0.5h4.8v-0.8c0-0.9-0.3-1.7-0.8-2.3c-0.6-0.6-1.5-1-2.9-1c-0.9,0-1.6,0.2-2.2,0.4c-0.6,0.3-1.1,0.7-1.6,1.1
				c-0.4,0.3-0.8,0.4-1.2,0.4c-0.4,0-0.8-0.3-1.2-0.7c-0.4-0.4-0.6-0.9-0.6-1.3s0.2-0.8,0.6-1.1c0.7-0.6,1.4-1.1,2.4-1.5
				c0.9-0.5,2.2-0.7,3.9-0.7c1.6,0,2.9,0.2,3.9,0.6s1.7,1,2.3,1.6c0.6,0.6,0.9,1.4,1.1,2.1C298.6,271.1,298.7,271.9,298.7,272.6z
				 M294.8,277.9v-1.1h-4.4c-1.2,0-2,0.2-2.4,0.7s-0.6,1-0.5,1.6c0,0.6,0.2,1.1,0.6,1.6c0.4,0.4,1.2,0.7,2.4,0.6
				c1,0,1.8-0.1,2.4-0.3c0.6-0.2,1-0.4,1.2-0.6c0.3-0.3,0.5-0.6,0.6-1.1C294.8,278.8,294.8,278.4,294.8,277.9z"/>
			<path class="st0" d="M315,282.6v-10c0-0.8-0.2-1.6-0.7-2.2c-0.5-0.7-1.5-1-2.9-1c-1.1,0-2,0.3-2.6,1c-0.7,0.7-1,1.4-1,2.2v10
				c0,0.5-0.2,0.9-0.5,1.2c-0.3,0.3-0.8,0.4-1.5,0.4s-1.1-0.2-1.5-0.4c-0.3-0.3-0.5-0.7-0.5-1.2v-14.7c0-0.5,0.2-0.9,0.5-1.2
				c0.3-0.3,0.8-0.5,1.5-0.5c0.5,0,0.9,0.1,1.2,0.3c0.3,0.2,0.5,0.4,0.7,0.8c0.8-0.5,1.6-0.9,2.4-1s1.4-0.2,2-0.2
				c2.4,0,4.1,0.6,5.3,1.7c1.2,1.1,1.7,2.7,1.7,4.7v10.1c0,0.5-0.2,0.9-0.5,1.2c-0.3,0.3-0.8,0.4-1.5,0.4c-0.6,0-1.1-0.2-1.5-0.4
				C315.2,283.5,315,283.1,315,282.6z"/>
			<path class="st0" d="M327.7,283.2l-4.9-14.5c-0.2-0.5-0.2-0.9,0-1.3s0.6-0.7,1.2-0.9c0.6-0.2,1.1-0.2,1.6-0.1
				c0.4,0.2,0.7,0.5,1,1c0,0,0,0.1,0.1,0.3c0,0.1,0.2,0.5,0.4,1.2c0.2,0.7,0.5,1.7,0.9,3.1s1,3.4,1.8,6l3.5-10.6
				c0.1-0.3,0.3-0.6,0.6-0.9c0.3-0.2,0.7-0.3,1.3-0.3c0.5,0,0.9,0.1,1.2,0.3c0.3,0.2,0.5,0.5,0.7,0.9l3.6,10.6l3.1-10.5
				c0.1-0.5,0.4-0.8,0.9-1c0.4-0.2,1-0.2,1.6,0s1,0.5,1.2,0.9s0.2,0.8,0,1.3l-4.8,14.4c-0.1,0.4-0.4,0.7-0.7,0.9
				c-0.3,0.2-0.7,0.3-1.2,0.3s-0.9-0.1-1.2-0.3c-0.3-0.2-0.5-0.4-0.6-0.8l-3.6-10.2l-3.6,10.1c-0.1,0.4-0.4,0.7-0.6,0.8
				c-0.3,0.2-0.7,0.3-1.2,0.3s-0.9-0.1-1.2-0.3C328,283.8,327.8,283.6,327.7,283.2z"/>
			<path class="st0" d="M350.9,278.1c-0.1-0.3-0.1-0.7-0.1-1.2s0-1,0-1.6c0-0.5,0-1.1,0-1.6s0-0.9,0.1-1.3l0,0
				c0.1-1.9,0.9-3.4,2.2-4.7c1.4-1.2,3.3-1.9,5.8-1.9c2.4,0,4.4,0.6,5.8,1.8c1.4,1.2,2.2,2.8,2.3,4.6c0,0.3,0,0.8,0,1.3s0,1,0,1.6
				c0,0.5,0,1,0,1.5s0,0.9,0,1.3c-0.1,2-0.9,3.6-2.3,4.8c-1.4,1.3-3.3,1.9-5.8,1.9c-2.6,0-4.5-0.6-5.9-1.8
				C351.8,281.8,351.1,280.2,350.9,278.1z M354.9,272.8c-0.1,0.3-0.1,0.7-0.1,1.1s0,0.9,0,1.4s0,1,0,1.4c0,0.5,0,0.8,0.1,1.1
				c0.1,1,0.5,1.9,1.2,2.6s1.7,1.1,3,1.1c1.2,0,2.2-0.3,3-1c0.7-0.7,1.1-1.5,1.2-2.5c0-0.7,0-1.6,0.1-2.6c0-1,0-1.9-0.1-2.6
				c-0.1-0.9-0.5-1.7-1.2-2.3c-0.7-0.6-1.7-1-2.9-1c-1.3,0-2.3,0.3-3,1C355.3,271.1,354.9,271.8,354.9,272.8z"/>
			<path class="st0" d="M372.2,278.1c-0.1-0.3-0.1-0.7-0.1-1.2s0-1,0-1.6c0-0.5,0-1.1,0-1.6s0-0.9,0.1-1.3l0,0
				c0.1-1.9,0.9-3.4,2.2-4.7c1.4-1.2,3.3-1.9,5.8-1.9c2.4,0,4.4,0.6,5.8,1.8c1.4,1.2,2.2,2.8,2.3,4.6c0,0.3,0,0.8,0,1.3s0,1,0,1.6
				c0,0.5,0,1,0,1.5s0,0.9,0,1.3c-0.1,2-0.9,3.6-2.3,4.8c-1.4,1.3-3.3,1.9-5.8,1.9c-2.6,0-4.5-0.6-5.9-1.8
				C373.1,281.8,372.3,280.2,372.2,278.1z M376.1,272.8c-0.1,0.3-0.1,0.7-0.1,1.1s0,0.9,0,1.4s0,1,0,1.4c0,0.5,0,0.8,0.1,1.1
				c0.1,1,0.5,1.9,1.2,2.6s1.7,1.1,3,1.1c1.2,0,2.2-0.3,3-1c0.7-0.7,1.1-1.5,1.2-2.5c0-0.7,0-1.6,0.1-2.6c0-1,0-1.9-0.1-2.6
				c-0.1-0.9-0.5-1.7-1.2-2.3c-0.7-0.6-1.7-1-2.9-1c-1.3,0-2.3,0.3-3,1C376.6,271.1,376.2,271.8,376.1,272.8z"/>
		</g>
	</g>
	<g>
		<path class="st0" d="M106.1,203.5v7.3c0,2.1-0.3,3.9-0.9,5.2s-1.4,2.3-2.3,3.1c-0.9,0.7-2,1.2-3.3,1.5c-1.2,0.3-2.5,0.4-3.9,0.4
			s-2.7-0.1-3.9-0.4c-1.2-0.3-2.3-0.7-3.3-1.5c-1-0.7-1.7-1.7-2.3-3.1c-0.6-1.3-0.8-3-0.8-5.2v-7.3H53.1c-2.1,0-3.8-0.2-5.1-0.6
			c-1.3-0.4-2.3-1-2.9-1.8c-0.7-0.8-1.1-1.7-1.3-2.7s-0.3-2.1-0.3-3.3c0-0.9,0.1-1.9,0.3-2.9s0.7-1.9,1.3-2.6
			c0.7-0.8,1.7-1.4,2.9-1.9c1.3-0.5,3-0.8,5.1-0.8h83.7c2.1,0,3.8,0.3,5.1,0.8s2.3,1.2,2.9,1.9c0.7,0.8,1.1,1.6,1.3,2.6
			s0.3,1.9,0.3,2.9c0,1.2-0.1,2.3-0.3,3.3s-0.7,1.9-1.3,2.7c-0.7,0.8-1.7,1.4-2.9,1.8c-1.3,0.4-3,0.6-5.1,0.6H106.1z M106.3,143.1
			c0,3.2,0.9,6,2.6,8.3s4,4.2,6.8,5.8s6,2.8,9.5,3.7c3.5,0.9,7,1.5,10.6,1.9c3.3,0.4,5.8,1.4,7.4,2.9c1.6,1.5,2.2,3.9,1.8,7.1
			c-0.3,1.7-0.7,3-1.5,3.9c-0.7,0.9-1.6,1.6-2.6,2s-2.2,0.7-3.5,0.7s-2.6,0-3.8-0.1c-7.1-0.6-14-2.2-20.8-4.7
			c-6.8-2.6-12.6-5.7-17.3-9.3c-4.8,3.7-10.5,6.8-17.3,9.3c-6.7,2.6-13.7,4.1-20.7,4.7c-1.3,0.1-2.6,0.1-3.8,0.1
			c-1.3,0-2.4-0.3-3.5-0.7c-1-0.4-1.9-1.1-2.6-2c-0.7-0.9-1.2-2.2-1.5-3.9c-0.4-3.2,0.2-5.6,1.8-7.1s4.1-2.4,7.4-2.9
			c3.7-0.4,7.3-1.1,10.8-2s6.7-2.1,9.4-3.6c2.7-1.5,5-3.5,6.7-5.8s2.7-5.1,2.8-8.4v-2c0-2.4,1.1-4.2,3.3-5.4
			c2.2-1.2,4.6-1.9,7.4-1.9c2.7,0,5.2,0.6,7.4,1.9c2.2,1.2,3.3,3.1,3.3,5.4L106.3,143.1L106.3,143.1z M58,245.2
			c-2.4,0-4.3-0.2-5.6-0.7c-1.4-0.5-2.4-1.1-3.1-1.9c-0.7-0.8-1.2-1.7-1.3-2.8c-0.2-1.1-0.3-2.2-0.3-3.5v-16.1c0-4.3,1-7.2,3.1-8.8
			s4.5-2.4,7.2-2.4c1.4,0,2.7,0.2,3.9,0.5s2.3,0.9,3.3,1.8c0.9,0.9,1.7,2,2.3,3.5c0.6,1.5,0.9,3.2,0.9,5.4v8.7h63.8
			c2.1,0,3.8,0.3,5.1,0.8s2.3,1.1,2.9,1.9c0.7,0.8,1.1,1.6,1.3,2.6s0.3,1.9,0.3,2.8c0,1.1-0.1,2.2-0.3,3.1c-0.2,1-0.7,1.9-1.3,2.6
			c-0.7,0.8-1.7,1.4-2.9,1.9c-1.3,0.5-3,0.7-5.1,0.7H58V245.2z"/>
		<path class="st0" d="M148.5,207.6c0-1.3,0.1-2.5,0.4-3.5c0.3-1.1,0.9-2,1.7-2.8c0.9-0.8,2-1.5,3.6-1.9c1.5-0.5,3.5-0.7,5.9-0.7
			h79.6c2.4,0,4.3,0.2,5.9,0.7c1.5,0.5,2.7,1.1,3.6,1.9c0.9,0.8,1.4,1.7,1.7,2.8s0.4,2.2,0.4,3.5c0,1-0.2,2.1-0.4,3.1
			c-0.3,1.1-0.9,2-1.7,2.8c-0.9,0.8-2,1.5-3.6,2c-1.5,0.5-3.5,0.8-5.9,0.8h-29.4v16.4c0,2.2-0.3,4-0.9,5.5c-0.6,1.4-1.4,2.6-2.3,3.5
			c-0.9,0.9-2,1.5-3.3,1.8c-1.2,0.3-2.5,0.5-3.9,0.5s-2.7-0.2-3.9-0.5s-2.3-0.9-3.3-1.8c-1-0.9-1.7-2-2.3-3.5s-0.8-3.3-0.8-5.5
			v-16.4h-29.5c-2.4,0-4.4-0.3-5.9-0.8s-2.7-1.2-3.6-2c-0.9-0.8-1.4-1.7-1.7-2.8C148.7,209.6,148.5,208.6,148.5,207.6z M190.1,143.3
			c0-2.1,0.3-3.8,0.9-5.1c0.6-1.3,1.4-2.3,2.4-3s2.1-1.2,3.4-1.4c1.3-0.2,2.6-0.3,4-0.3s2.7,0.1,4,0.3s2.4,0.7,3.4,1.4
			s1.8,1.7,2.4,3c0.6,1.3,0.9,3,0.9,5.1v3.3c0,3.2,0.9,6.2,2.6,8.8c1.7,2.6,4,4.9,6.9,6.8c2.9,2,6.1,3.7,9.7,5.1
			c3.6,1.5,7.3,2.6,11.1,3.5c3.3,0.8,5.8,2.2,7.4,4.4c1.6,2.1,2.1,4.8,1.4,7.9c-0.8,3.3-2.7,5.5-5.9,6.7c-0.9,0.3-1.9,0.6-2.9,0.6
			c-1,0.1-2.1,0-3.1-0.3c-8.3-1.8-15.6-4.5-22.1-8.2c-6.4-3.7-11.8-7.8-16.2-12.3c-4.3,4.4-9.6,8.3-15.8,11.8s-12.7,6.1-19.6,7.7
			c-1.2,0.3-2.5,0.5-3.9,0.6c-1.4,0.2-2.8,0.1-4.2-0.1c-1.5-0.3-2.8-1-4.1-1.9s-2.2-2.4-2.8-4.3c-0.9-3.1-0.7-5.8,0.7-8.1
			s3.7-3.9,7-4.9c3.7-1.1,7.4-2.4,11.3-3.8c3.9-1.4,7.4-3.1,10.5-5s5.7-4.1,7.7-6.7c2-2.5,3-5.4,3-8.6L190.1,143.3L190.1,143.3z"/>
		<path class="st0" d="M249.4,159.1c0-1.3,0.1-2.4,0.4-3.3c0.3-0.9,0.9-1.7,1.7-2.4c0.9-0.6,2.1-1.1,3.6-1.5
			c1.5-0.3,3.5-0.5,5.9-0.5h42c2.4,0,4.4,0.2,5.9,0.5s2.7,0.8,3.6,1.5c0.9,0.6,1.4,1.4,1.7,2.4c0.3,0.9,0.4,2.1,0.4,3.3
			c0,1-0.1,2-0.4,2.9s-0.9,1.6-1.7,2.2c-0.9,0.6-2,1.1-3.6,1.4c-1.5,0.3-3.5,0.5-5.9,0.5h-42c-2.4,0-4.3-0.2-5.9-0.5
			c-1.5-0.3-2.7-0.8-3.6-1.4c-0.9-0.6-1.4-1.3-1.7-2.2C249.6,161.1,249.4,160.1,249.4,159.1z M254.5,190.6c0-7.3,2.2-12.4,6.7-15.4
			c4.4-3,11.4-4.5,20.9-4.5s16.4,1.5,20.9,4.5c4.4,3,6.6,8.1,6.6,15.4c0,3.8-0.6,7-1.7,9.6s-2.8,4.6-5,6c-2.2,1.5-5.1,2.5-8.6,3.1
			s-7.6,0.9-12.3,0.9c-9.5,0-16.4-1.5-20.9-4.4C256.8,202.8,254.5,197.7,254.5,190.6z M277.1,227.7h58.4c2.4,0,4.4,0.3,5.9,0.8
			s2.7,1.2,3.6,2s1.4,1.7,1.7,2.8c0.3,1.1,0.4,2.1,0.4,3.1c0,1.3-0.1,2.5-0.4,3.5c-0.3,1.1-0.9,2-1.7,2.8c-0.9,0.8-2.1,1.4-3.6,1.9
			s-3.5,0.7-5.9,0.7h-68.8c-2.4,0-4.3-0.2-5.6-0.7c-1.4-0.5-2.4-1.1-3.1-1.9c-0.7-0.8-1.2-1.7-1.3-2.8c-0.2-1.1-0.3-2.2-0.3-3.5
			v-13.2c0-2.1,0.3-3.9,1-5.3c0.7-1.4,1.6-2.5,2.7-3.3s2.3-1.4,3.6-1.7c1.3-0.3,2.6-0.5,3.9-0.5c2.6,0,4.8,0.7,6.7,2.2
			s2.8,4.4,2.8,8.6L277.1,227.7L277.1,227.7z M257.5,140.3c0-2.5,0.7-4.2,2.2-5.3s4.6-1.6,9.4-1.6H295c4.8,0,7.9,0.5,9.4,1.6
			s2.2,2.8,2.2,5.3c0,2.1-0.7,3.8-2.2,4.9c-1.5,1.2-4.6,1.7-9.4,1.7h-25.8c-4.8,0-7.9-0.6-9.4-1.7
			C258.2,144,257.5,142.4,257.5,140.3z M274.5,190.6c0,1.7,0.5,3,1.4,4c0.9,0.9,3,1.4,6.1,1.4c3.2,0,5.3-0.5,6.2-1.4
			c0.9-0.9,1.3-2.3,1.3-4s-0.4-3-1.3-4c-0.9-0.9-3-1.4-6.2-1.4s-5.2,0.5-6.1,1.4S274.5,188.9,274.5,190.6z M322.9,145.3
			c0-4.3,1-7.2,3.1-8.8s4.5-2.4,7.2-2.4c1.4,0,2.7,0.2,3.9,0.5c1.2,0.3,2.3,0.9,3.3,1.8c0.9,0.9,1.7,2,2.3,3.5
			c0.6,1.5,0.9,3.2,0.9,5.4v20.6h3.4c2.4,0,4.3,0.3,5.9,0.8c1.5,0.5,2.7,1.2,3.6,2s1.4,1.7,1.7,2.8c0.3,1.1,0.4,2.1,0.4,3.1
			c0,1.3-0.1,2.5-0.4,3.5c-0.3,1.1-0.9,2-1.7,2.8c-0.9,0.8-2.1,1.5-3.6,1.9c-1.5,0.5-3.5,0.7-5.9,0.7h-3.4v19.3
			c0,2.2-0.3,4.1-0.9,5.5c-0.6,1.5-1.4,2.6-2.3,3.5s-2,1.4-3.3,1.8c-1.2,0.3-2.5,0.5-3.9,0.5s-2.7-0.2-3.9-0.5
			c-1.2-0.3-2.4-0.9-3.3-1.8c-1-0.9-1.7-2-2.3-3.5c-0.6-1.4-0.8-3.3-0.8-5.5L322.9,145.3L322.9,145.3z"/>
		<g>
			<path class="st0" d="M354.5,207.6c0-1.3,0.1-2.5,0.4-3.5c0.3-1.1,0.9-2,1.7-2.8c0.9-0.8,2.1-1.5,3.6-1.9c1.5-0.5,3.5-0.7,5.9-0.7
				h79.6c2.4,0,4.3,0.2,5.9,0.7c1.5,0.5,2.7,1.1,3.6,1.9c0.9,0.8,1.4,1.7,1.7,2.8c0.3,1.1,0.4,2.2,0.4,3.5c0,1-0.2,2.1-0.4,3.1
				c-0.3,1.1-0.9,2-1.7,2.8c-0.9,0.8-2,1.5-3.6,2c-1.5,0.5-3.5,0.8-5.9,0.8h-29.4v16.4c0,2.2-0.3,4-0.9,5.5
				c-0.6,1.4-1.4,2.6-2.3,3.5s-2,1.5-3.3,1.8c-1.2,0.3-2.5,0.5-3.9,0.5s-2.7-0.2-3.9-0.5c-1.2-0.3-2.3-0.9-3.3-1.8
				c-1-0.9-1.7-2-2.3-3.5c-0.6-1.5-0.8-3.3-0.8-5.5v-16.4h-29.5c-2.4,0-4.4-0.3-5.9-0.8s-2.7-1.2-3.6-2s-1.4-1.7-1.7-2.8
				C354.7,209.6,354.5,208.6,354.5,207.6z"/>
			<path class="st0" d="M433.5,142.7c-6.3-4.2-14.2-6.6-27.5-6.6c-13.4,0-20.9,2.6-27.2,6.8c-6.3,4.2-11.6,10.9-11.6,21.2
				c0,10.1,3.9,17.7,10.2,21.9c6.3,4.2,15.3,6.8,28.6,6.8c6.6,0,18.7-0.8,27.9-6.6c8.9-5.5,10.9-16.7,10.9-22.1
				C444.8,153.9,439.8,146.9,433.5,142.7z M420,174.4c-4.6,2.6-10.7,3-14,3c-6.7,0-11.3-1.2-14.4-3.1c-3.1-1.9-5.1-5.4-5.1-10
				c0-4.7,2.4-7.8,5.5-9.7c3.2-1.9,7.3-3.1,14-3.1s10.7,1.1,13.8,3c3.1,1.9,5.7,5.1,5.7,9.8C425.5,166.8,424.5,171.9,420,174.4z"/>
		</g>
	</g>
	<path class="st0" d="M436,96.6H64.8C29.1,96.6,0,125.7,0,161.4v113.7c0,5,4.1,9.1,9.1,9.1h85.8V266H18.2V161.4
		c0-25.7,20.9-46.6,46.6-46.6H436c25.7,0,46.6,20.9,46.6,46.6V266h-76.7v18.2h85.8c5,0,9.1-4.1,9.1-9.1V161.4
		C500.8,125.7,471.7,96.6,436,96.6z"/>
	<path class="st0" d="M381.6,98.4c2-10,5.5-13.4,14.3-15.6c-4.1-4-8-3.9-11.5-1.9c-0.5-3.1-1.9-6-3.9-8.2c-2,2.2-3.3,4.9-3.9,8
		c-3.5-2.1-7.6-2.2-11.5,2.1c8.6,2.2,12.1,5.4,14.1,14.9C379.6,100,381.1,100.6,381.6,98.4z"/>
	<path class="st0" d="M354.1,75.5V62c2.8,0.1,8.3,0,11.2-2.9c2-2.1,2.3-6.7,3.8-10.9c-2.7,0.3-8.3,0.2-11.1,2.7
		c-2.3,2-3.1,4-3.9,6.3v-4.4c1.2-3.1,2.4-5.3,1.9-9.2c-0.5-3.8-4.8-7.3-6.6-9.3c-1.6,4.1-4.4,7.8-4.2,10.7c0.2,3.6,3.4,6.9,5.6,8.8
		v11.5c-0.7-2.1-1.6-4-3.7-5.9c-2.8-2.5-8.4-2.4-11.1-2.7c1.5,4.2,1.8,8.8,3.8,10.9c2.8,2.9,8.2,3.1,11.1,2.9v11.1
		c-0.7-2.1-1.6-4-3.7-5.9c-2.8-2.5-8.4-2.4-11.1-2.7c1.5,4.2,1.8,8.8,3.8,10.9c2.8,2.9,8.2,3.1,11.1,2.9V102c0,0.9,0.7,1.6,1.6,1.6
		s1.6-0.7,1.6-1.6V80.3c2.8,0.1,8.3,0,11.2-2.9c2-2.1,2.3-6.7,3.8-10.9c-2.7,0.3-8.3,0.2-11.1,2.7C355.7,71.3,354.9,73.3,354.1,75.5
		z"/>
</g>
</svg>
