<?xml version="1.0" encoding="utf-8"?>
<!-- Generator: Adobe Illustrator 26.2.1, SVG Export Plug-In . SVG Version: 6.00 Build 0)  -->
<svg version="1.1" id="Layer_1" xmlns="http://www.w3.org/2000/svg" xmlns:xlink="http://www.w3.org/1999/xlink" x="0px" y="0px"
	 viewBox="0 0 512 512" style="enable-background:new 0 0 512 512;" xml:space="preserve">
<style type="text/css">
	.st0{fill:url(#SVGID_1_);}
</style>
<linearGradient id="SVGID_1_" gradientUnits="userSpaceOnUse" x1="256" y1="513.2756" x2="256" y2="1.2756" gradientTransform="matrix(1 0 0 -1 0 513.2756)">
	<stop  offset="0" style="stop-color:#EDD5E9"/>
	<stop  offset="1" style="stop-color:#7A5591"/>
</linearGradient>
<path class="st0" d="M256,0C114.8,0,0,114.8,0,256s114.8,256,256,256s256-114.8,256-256S397.2,0,256,0z M348.5,212.3
	c-6.2,6.2-16.4,6.2-22.6,0c0,0,0,0,0,0L272,158.4v233.7c0,8.8-7.2,16-16,16c-8.8,0-16-7.2-16-16V158.4l-53.8,53.8
	c-6.3,6.2-16.4,6.1-22.6-0.1c-6.2-6.2-6.2-16.3,0-22.5l81.1-81.1c6.2-6.2,16.4-6.2,22.6,0l81.1,81.1
	C354.7,195.9,354.7,206,348.5,212.3C348.5,212.3,348.5,212.3,348.5,212.3L348.5,212.3z"/>
</svg>
